<?xml version="1.0" standalone="no"?>
<!DOCTYPE svg PUBLIC "-//W3C//DTD SVG 20010904//EN"
 "http://www.w3.org/TR/2001/REC-SVG-20010904/DTD/svg10.dtd">
<svg version="1.0" xmlns="http://www.w3.org/2000/svg"
 width="480.000000pt" height="274.000000pt" viewBox="0 0 480.000000 274.000000"
 preserveAspectRatio="xMidYMid meet">
<metadata>
Created by potrace 1.16, written by Peter Selinger 2001-2019
</metadata>
<g transform="translate(0.000000,274.000000) scale(0.100000,-0.100000)"
fill="#000000" stroke="none">
<path d="M0 1370 l0 -1370 2400 0 2400 0 0 1370 0 1370 -2400 0 -2400 0 0
-1370z m2354 1016 c28 -13 69 -31 91 -41 22 -9 63 -27 90 -40 28 -12 66 -29
85 -38 37 -16 94 -41 175 -77 71 -31 127 -57 183 -81 50 -22 143 -64 180 -82
21 -10 22 -15 22 -139 l0 -128 -90 0 -90 0 0 78 c0 72 -2 80 -22 89 -24 11
-88 40 -163 73 -25 11 -65 29 -90 40 -25 11 -64 29 -87 39 -24 10 -59 26 -78
34 -43 18 -118 51 -188 83 -29 13 -57 24 -62 24 -6 0 -10 5 -10 10 0 16 -22
12 -76 -14 -27 -13 -67 -32 -89 -41 -22 -10 -62 -28 -90 -40 -27 -13 -68 -31
-90 -40 -38 -16 -70 -30 -172 -76 -27 -12 -57 -25 -68 -29 -11 -4 -51 -23 -90
-41 l-70 -34 -5 -75 -5 -75 -78 -3 -78 -3 3 132 c2 105 6 133 18 139 8 4 25
12 37 18 13 7 30 12 38 12 8 0 15 4 15 9 0 5 20 15 45 22 25 7 45 17 45 21 0
4 6 8 14 8 8 0 31 8 53 19 21 10 58 28 83 39 25 11 75 34 112 51 37 17 74 31
82 31 9 0 16 5 16 10 0 6 5 10 10 10 6 0 32 9 58 21 100 45 129 58 182 83 68
32 90 32 154 2z m-6 -603 c55 -104 98 -191 95 -195 -2 -5 -71 -8 -152 -8 -104
0 -161 -4 -190 -15 -37 -13 -41 -13 -41 3 0 20 29 102 43 120 5 6 22 12 38 12
16 0 29 3 29 6 0 15 -56 104 -65 104 -14 0 -227 -359 -220 -371 4 -5 21 -9 38
-9 l32 0 -57 -55 -56 -55 -111 0 c-61 0 -111 1 -111 3 0 2 73 136 161 297
l161 294 -33 28 -33 28 186 0 186 0 100 -187z m270 82 c28 -58 52 -106 52
-108 0 -2 -48 -3 -106 -2 l-105 0 -39 75 c-22 41 -51 85 -65 97 -43 38 -33 43
93 43 l117 0 53 -105z m118 -237 c54 -109 112 -205 145 -242 52 -60 44 -66
-79 -66 l-108 0 -17 33 c-9 17 -27 50 -39 72 -59 103 -138 254 -138 264 0 7
34 11 100 11 l100 0 36 -72z m-221 -179 c22 -39 50 -79 62 -89 42 -33 29 -40
-81 -40 l-105 0 -24 33 c-29 38 -97 152 -97 161 0 3 46 6 103 6 l102 0 40 -71z
m-963 -66 l3 -78 275 -122 c151 -67 309 -138 352 -158 86 -39 97 -41 141 -21
18 8 72 33 120 55 49 23 94 41 101 41 7 0 16 4 21 9 6 6 62 32 125 59 63 27
149 65 190 84 42 19 85 38 98 42 20 7 22 13 22 87 l0 79 96 0 c67 0 93 -3 88
-11 -3 -6 -6 -64 -5 -129 l1 -117 -108 -48 c-59 -26 -123 -54 -142 -63 -19 -8
-71 -32 -115 -52 -44 -20 -116 -52 -160 -70 -44 -18 -111 -48 -150 -66 -146
-68 -191 -86 -221 -87 -28 -1 -130 40 -319 127 -38 18 -92 42 -120 53 -27 12
-79 34 -114 49 -35 16 -125 56 -200 89 l-136 61 -5 132 -5 132 82 0 82 0 3
-77z m208 -803 c0 -19 -7 -20 -100 -20 l-100 0 -25 -50 c-14 -27 -25 -52 -25
-55 0 -3 38 -5 85 -5 78 0 85 -2 85 -20 0 -19 -7 -20 -140 -20 -77 0 -140 4
-140 9 0 16 61 146 77 163 14 16 35 18 150 18 126 0 133 -1 133 -20z m355 -7
c-14 -58 -31 -73 -85 -73 l-50 0 20 -40 c11 -21 20 -42 20 -45 0 -4 -17 -5
-37 -3 -33 3 -41 9 -60 44 -31 55 -23 72 35 76 72 5 67 28 -7 28 l-60 0 -38
-72 c-37 -72 -39 -73 -80 -76 -26 -2 -43 1 -43 8 0 12 67 148 82 168 8 8 52
12 160 12 l150 0 -7 -27z m312 -58 c23 -44 42 -86 43 -92 0 -9 -16 -13 -46
-13 l-46 0 -26 60 c-15 33 -29 60 -32 60 -3 0 -24 -18 -45 -40 l-39 -40 37 0
c30 0 37 -4 37 -20 0 -19 -7 -20 -100 -20 -55 0 -100 4 -100 8 0 9 117 123
164 160 22 17 40 22 70 20 40 -3 42 -5 83 -83z m413 65 c0 -17 -7 -20 -48 -20
l-48 0 -27 -55 -27 -55 45 0 c38 0 45 -3 45 -20 0 -19 -7 -20 -145 -20 -138 0
-145 1 -145 20 0 17 7 20 53 20 53 0 53 0 75 45 12 25 22 50 22 55 0 6 -20 10
-45 10 -38 0 -45 3 -45 20 0 19 7 20 145 20 138 0 145 -1 145 -20z m330 0 c0
-19 -7 -20 -100 -20 l-101 0 -24 -52 -25 -53 90 -3 c82 -2 90 -5 90 -22 0 -19
-8 -20 -145 -20 -92 0 -145 4 -145 10 0 12 67 149 82 168 8 8 49 12 144 12
127 0 134 -1 134 -20z"/>
</g>
</svg>
