<svg class="svg-inline--fa fa-plane-departure fa-w-20" aria-hidden="true" focusable="false" data-prefix="fal" data-icon="plane-departure" role="img" xmlns="http://www.w3.org/2000/svg" viewBox="0 0 640 512">
  <path fill="currentColor" d="M312 32c13.3 0 24 10.7 24 24v144.4l53.6 34.6L472.4 144H504c13.3 0 24 10.7 24 24v112c0 35.3-28.7 64-64 64H236.1l34.1 99.7c7.8 22.8 31.3 34.8 54.1 27.4l231.1-70.8c2.8-.8 5.6-1.7 8.4-2.7C581.9 416 624 359.8 624 296v-8c0-42.3-21.5-81.2-57.5-104.1L359 12.3C346.7 4.7 331.4 0 316 0c-23.6 0-45.8 12.3-58.4 33.3L186.6 192H24c-13.3 0-24 10.7-24 24s10.7 24 24 24h129.7l-56.8 99.7C82.2 349.6 101.5 384 132.3 384h145.7L186.2 284.3l-80.7-47.4-5.6-20.6c-6-22.2-28.7-35.1-50.8-29.1l-24.7 6.6c-15.5 4.1-27 17.7-27.7 33.7L0 304c0 27.8 22.2 50 50 50h148c18.2 0 35.7-6.5 49.8-18.4L312 366.4V472c0 13.3 10.7 24 24 24s24-10.7 24-24v-72.4c0-27.6 13.7-52.6 36.4-67.5L569.4 184c4.2-2.6 8.6-5.2 12.6-7.8 28.8-18.5 58.1-35.1 87.6-52.1-6-17.6-14.6-34.1-25.6-48.8-35.5-47.4-93.4-75.3-155-75.3H342.2l-29.1-9.6C311.3 34.8 311.6 32 312 32z"></path>
</svg>
